<svg xmlns="http://www.w3.org/2000/svg" version="1.1" xmlns:xlink="http://www.w3.org/1999/xlink" width="512" height="512" x="0" y="0" viewBox="0 0 128 128" style="enable-background:new 0 0 512 512" xml:space="preserve" class=""><g><g fill="#27276d"><path d="M83.3 61.849H11.073a6.136 6.136 0 0 1-6.129-6.13v-18.89a6.136 6.136 0 0 1 6.129-6.13h63.981a1.75 1.75 0 1 1 0 3.5H11.073a2.633 2.633 0 0 0-2.629 2.63v18.89a2.633 2.633 0 0 0 2.629 2.63H83.3a1.75 1.75 0 0 1 0 3.5z" fill="#051835" opacity="1" data-original="#27276d" class=""></path><path d="M23.762 54.223a7.951 7.951 0 1 1 7.95-7.951 7.959 7.959 0 0 1-7.95 7.951zm0-12.4a4.451 4.451 0 1 0 4.45 4.45 4.454 4.454 0 0 0-4.45-4.451zM44.412 54.223a7.951 7.951 0 1 1 7.949-7.951 7.96 7.96 0 0 1-7.949 7.951zm0-12.4a4.451 4.451 0 1 0 4.449 4.45 4.456 4.456 0 0 0-4.449-4.451zM75.059 48.022h-9.048a1.75 1.75 0 0 1 0-3.5h9.048a1.75 1.75 0 0 1 0 3.5zM23.762 81.879a7.95 7.95 0 1 1 7.95-7.95 7.958 7.958 0 0 1-7.95 7.95zm0-12.4a4.45 4.45 0 1 0 4.45 4.45 4.454 4.454 0 0 0-4.45-4.45zM44.412 81.879a7.95 7.95 0 1 1 7.949-7.95 7.959 7.959 0 0 1-7.949 7.95zm0-12.4a4.45 4.45 0 1 0 4.449 4.45 4.456 4.456 0 0 0-4.449-4.45zM75.059 75.679h-9.048a1.75 1.75 0 0 1 0-3.5h9.048a1.75 1.75 0 0 1 0 3.5zM93.009 75.679h-9.048a1.75 1.75 0 1 1 0-3.5h9.048a1.75 1.75 0 0 1 0 3.5z" fill="#051835" opacity="1" data-original="#27276d" class=""></path></g><path fill="#00bf63" d="M50.47 100.823a1.749 1.749 0 0 1-1.75-1.75V87.754A1.749 1.749 0 0 1 50.47 86h9.63a1.75 1.75 0 0 1 1.75 1.75v11.31a1.75 1.75 0 0 1-3.5 0V89.5h-6.13v9.569a1.75 1.75 0 0 1-1.75 1.754zM80.725 113.449H63.1a1.75 1.75 0 1 1 0-3.5h17.625a1.516 1.516 0 0 0 1.515-1.514v-3.114a1.516 1.516 0 0 0-1.515-1.515H63.1a1.75 1.75 0 1 1 0-3.5h17.625a5.021 5.021 0 0 1 5.015 5.015v3.114a5.021 5.021 0 0 1-5.015 5.014zM47.473 113.449h-18.31a5.021 5.021 0 0 1-5.015-5.014v-3.114a5.021 5.021 0 0 1 5.015-5.015h18.31a1.75 1.75 0 0 1 0 3.5h-18.31a1.517 1.517 0 0 0-1.515 1.515v3.114a1.516 1.516 0 0 0 1.515 1.514h18.31a1.75 1.75 0 0 1 0 3.5z" opacity="1" data-original="#fd5c70" class=""></path><path fill="#00bf63" d="M55.286 117.821a10.944 10.944 0 1 1 10.943-10.943 10.956 10.956 0 0 1-10.943 10.943zm0-18.387a7.444 7.444 0 1 0 7.443 7.444 7.453 7.453 0 0 0-7.443-7.444z" opacity="1" data-original="#fd5c70" class=""></path><path fill="#051835" d="M99.5 89.509H11.073a6.142 6.142 0 0 1-6.129-6.141V64.489a6.142 6.142 0 0 1 6.129-6.14H83.3a1.75 1.75 0 0 1 0 3.5H11.073a2.638 2.638 0 0 0-2.629 2.64v18.879a2.639 2.639 0 0 0 2.629 2.641H99.5a2.639 2.639 0 0 0 2.629-2.641V66.685a1.75 1.75 0 0 1 3.5 0v16.683a6.142 6.142 0 0 1-6.129 6.141z" opacity="1" data-original="#27276d" class=""></path><path fill="#00bf63" d="M98.183 69.967a1.765 1.765 0 0 1-.192-.011c-12.3-1.352-20.4-13.431-23.312-18.56a10.54 10.54 0 0 1-1.37-5.2V25.748a6.678 6.678 0 0 1 3.722-5.962l18.36-8.962a6.323 6.323 0 0 1 5.586 0l18.356 8.962a6.676 6.676 0 0 1 3.725 5.962v20.446a10.565 10.565 0 0 1-1.369 5.2c-2.914 5.13-11.014 17.209-23.314 18.561a1.747 1.747 0 0 1-.192.012zm0-56.29a2.837 2.837 0 0 0-1.256.292l-18.36 8.962a3.155 3.155 0 0 0-1.758 2.817v20.446a7.035 7.035 0 0 0 .913 3.473c2.631 4.635 9.87 15.5 20.461 16.788 10.59-1.285 17.83-12.153 20.461-16.788a7.054 7.054 0 0 0 .913-3.473V25.748a3.155 3.155 0 0 0-1.76-2.817l-18.358-8.962a2.857 2.857 0 0 0-1.256-.292z" opacity="1" data-original="#fd5c70" class=""></path><path fill="#00bf63" d="M98.183 61.052a1.765 1.765 0 0 1-.192-.011c-8.659-.951-14.318-9.379-16.349-12.958a7.748 7.748 0 0 1-1.009-3.827V30.285a5.118 5.118 0 0 1 2.855-4.571l12.543-6.124a4.881 4.881 0 0 1 4.3 0l12.544 6.125a5.119 5.119 0 0 1 2.855 4.571v13.97a7.757 7.757 0 0 1-1.008 3.827c-2.033 3.579-7.694 12.007-16.35 12.958a1.747 1.747 0 0 1-.189.011zm-.617-38.318-12.543 6.124a1.6 1.6 0 0 0-.89 1.427v13.971a4.242 4.242 0 0 0 .552 2.1c1.75 3.084 6.546 10.3 13.5 11.185 6.948-.884 11.747-8.1 13.5-11.185a4.252 4.252 0 0 0 .551-2.1V30.285a1.6 1.6 0 0 0-.891-1.427L98.8 22.734a1.409 1.409 0 0 0-1.232 0z" opacity="1" data-original="#fd5c70" class=""></path><path fill="#00bf63" d="M95.008 48.966h-.043a1.749 1.749 0 0 1-1.338-.674l-4.564-5.863a1.75 1.75 0 0 1 2.762-2.151l3.251 4.177 9.324-10.83a1.75 1.75 0 1 1 2.653 2.283L96.334 48.357a1.749 1.749 0 0 1-1.326.609z" opacity="1" data-original="#fd5c70" class=""></path></g></svg>